<svg width="393" height="76" viewBox="0 0 393 76" fill="none" xmlns="http://www.w3.org/2000/svg">
<mask id="mask0_782_2801" style="mask-type:alpha" maskUnits="userSpaceOnUse" x="0" y="0" width="393" height="76">
<rect width="393" height="76" fill="#D9D9D9"/>
</mask>
<g mask="url(#mask0_782_2801)">
<path d="M111 95H-71C-67.084 84.2727 -51.5285 70.0832 -29.6114 60.5565C-18.1808 55.5762 -5.00884 51.8662 9.1382 50.5805C10.5467 50.4488 11.9552 50.3481 13.387 50.2629C15.5694 50.139 17.775 50.077 19.9961 50.077C20.7855 50.077 21.5826 50.0848 22.3643 50.108C23.5406 50.1312 24.7092 50.17 25.8778 50.2319C34.1509 50.6424 42.1222 51.8894 49.6523 53.7793C54.0017 54.8482 58.1962 56.1416 62.2206 57.6055C87.9995 66.9541 106.651 83.1031 111 95Z" fill="#02C275"/>
<path d="M97.8049 88.9044L90.9326 95H60.8585C58.1576 92.1419 55.3328 89.4001 52.3765 86.7977L50.8906 85.4655C50.3875 85.0317 49.869 84.6367 49.3582 84.2185L46.2548 81.7245C45.1946 80.9344 44.1111 80.1754 43.0431 79.3854L41.4257 78.2158L39.754 77.1392C35.335 74.1573 30.6142 71.6478 25.7463 69.3707C20.8707 67.0935 15.7706 65.2424 10.5158 63.7863C5.26093 62.3147 -0.148691 61.2458 -5.65892 60.6029C-11.1614 59.9678 -16.7645 59.7432 -22.3831 59.9833C-24.7899 60.0917 -27.1968 60.2776 -29.6036 60.5642C-18.173 55.584 -5.0011 51.8739 9.14595 50.5882C10.5545 50.4565 11.963 50.3559 13.3947 50.2707C15.5771 50.1467 17.7828 50.0848 20.0039 50.0848C20.7933 50.0848 21.5904 50.0925 22.372 50.1158C23.5484 50.139 24.717 50.1777 25.8856 50.2397C27.8436 50.596 29.8016 51.022 31.7363 51.4944C37.8734 53.0048 44.0105 54.8714 49.9 57.3422L52.1288 58.2329L54.3112 59.2243C55.7584 59.8904 57.2289 60.5487 58.6761 61.2381L62.9403 63.461C63.6446 63.8405 64.3643 64.1968 65.0686 64.5918L67.1349 65.8078C78.2327 72.2442 88.5025 80.1212 97.8049 88.9044Z" fill="#038D56"/>
<path d="M279 86.9999H37C42.207 72.7326 62.8907 53.8607 92.0332 41.1901C107.232 34.5664 124.746 29.632 143.557 27.922C145.43 27.7469 147.303 27.613 149.207 27.4997C152.109 27.3348 155.042 27.2524 157.995 27.2524C159.044 27.2524 160.104 27.2627 161.144 27.2936C162.708 27.3245 164.262 27.376 165.816 27.4585C176.816 28.0044 187.415 29.6629 197.428 32.1765C203.211 33.598 208.788 35.3183 214.139 37.2653C248.417 49.699 273.217 71.1771 279 86.9999Z" fill="#02C275"/>
<path d="M261.455 78.8928L252.317 86.9999H212.328C208.737 83.1988 204.981 79.5521 201.05 76.0909L199.074 74.319C198.405 73.7422 197.716 73.2168 197.037 72.6605L192.91 69.3435C191.5 68.2928 190.06 67.2832 188.64 66.2325L186.489 64.677L184.266 63.2451C178.39 59.2791 172.113 55.9415 165.641 52.9129C159.158 49.8844 152.376 47.4224 145.389 45.4857C138.402 43.5285 131.209 42.1069 123.882 41.2519C116.566 40.4072 109.115 40.1084 101.644 40.4278C98.4442 40.572 95.2438 40.8192 92.0435 41.2004C107.242 34.5766 124.757 29.6423 143.568 27.9323C145.441 27.7572 147.313 27.6233 149.217 27.51C152.119 27.3451 155.052 27.2627 158.005 27.2627C159.055 27.2627 160.115 27.273 161.154 27.3039C162.718 27.3348 164.272 27.3863 165.826 27.4687C168.429 27.9426 171.033 28.5092 173.605 29.1376C181.766 31.1463 189.926 33.6289 197.757 36.915L200.721 38.0997L203.623 39.4182C205.547 40.3042 207.502 41.1798 209.426 42.0966L215.096 45.0531C216.033 45.5578 216.99 46.0317 217.926 46.557L220.674 48.1743C235.43 56.7347 249.086 67.2111 261.455 78.8928Z" fill="#048A55"/>
<g clip-path="url(#clip0_782_2801)">
<path d="M266.501 15.2719L255.46 19.3899L253.659 14.5758C252.943 12.6491 253.917 10.5152 255.844 9.7997L259.924 8.27249C261.839 7.5541 263.984 8.53106 264.7 10.4578L266.501 15.2719Z" fill="#DB5500"/>
<path d="M299.351 30.6688C295.388 25.8695 289.868 22.6516 283.849 21.5231C280.188 20.5843 275.881 20.0373 270.807 20.1237L255.675 25.766C255.675 25.766 254.64 28.323 253.751 32.4355C252.946 36.1779 252.104 41.2631 252.182 46.8329C252.226 50.1292 253.236 54.515 254.615 58.201C256.233 62.5293 258.37 66.6823 261.717 70.6477C263.856 73.1764 266.476 75.6273 269.777 78.0155C271.409 79.1927 273.527 79.4869 275.418 78.7739L307.885 66.6667C311.004 65.5098 312.582 62.0367 311.425 58.9176C311.425 58.9176 303.494 37.6368 303.42 37.4162C303.179 36.6904 302.093 33.8504 299.351 30.6688ZM297.695 43.2771C295.526 45.9107 289.521 44.5371 284.285 40.2177C279.048 35.8982 276.569 30.2581 278.75 27.6273C280.919 24.9936 286.923 26.3672 292.16 30.6866C297.386 35.0032 299.865 40.6434 297.695 43.2771Z" fill="url(#paint0_linear_782_2801)"/>
<path d="M265.302 12.1779L254.577 16.1752C253.382 16.6277 252.769 17.953 253.219 19.1593L255.686 25.7689L270.754 20.1456L268.287 13.536C267.837 12.3297 266.498 11.7254 265.302 12.1779Z" fill="#C94D00"/>
<path d="M256.293 11.9786C256.126 11.9358 255.98 11.8151 255.908 11.6308C255.815 11.346 255.956 11.0265 256.244 10.9223L260.374 9.43164C260.658 9.33863 260.975 9.49099 261.082 9.76746C261.186 10.0551 261.034 10.3718 260.746 10.4759L256.619 11.9555C256.513 11.9994 256.393 12.0042 256.293 11.9786Z" fill="white"/>
<path d="M255.823 38.5997C255.601 38.5427 255.426 38.3438 255.408 38.0901C255.196 33.6478 257.148 28.3019 257.23 28.074C257.337 27.7932 257.65 27.6363 257.942 27.7467C258.223 27.8543 258.369 28.1644 258.272 28.448C258.258 28.5037 256.315 33.8162 256.526 38.0328C256.544 38.3338 256.311 38.5943 255.999 38.6091C255.937 38.6171 255.879 38.614 255.823 38.5997Z" fill="#D7E8F3"/>
</g>
<g clip-path="url(#clip1_782_2801)">
<path fill-rule="evenodd" clip-rule="evenodd" d="M294.099 30.6841L304.483 34.8603C306.532 35.6853 307.523 38.0141 306.695 40.0582L291.464 77.6045C290.635 79.6296 288.3 80.6366 286.25 79.8116L275.866 75.6354C273.836 74.8097 272.826 72.4816 273.654 70.4376L288.885 32.8913C289.732 30.8464 292.068 29.8584 294.099 30.6841Z" fill="#017864"/>
<path fill-rule="evenodd" clip-rule="evenodd" d="M303.348 16.6873L307.583 18.3886C308.415 18.7332 308.815 19.6835 308.488 20.5123L291.481 62.4362C291.154 63.265 290.182 63.6656 289.35 63.3398L285.116 61.6386C284.284 61.294 283.883 60.3437 284.21 59.5148L301.218 17.591C301.564 16.7614 302.516 16.3427 303.348 16.6873Z" fill="#017864"/>
<path fill-rule="evenodd" clip-rule="evenodd" d="M302.936 34.242L304.483 34.8792C306.514 35.705 307.523 38.033 306.696 40.0771L291.464 77.6234C290.636 79.6485 288.301 80.6555 286.251 79.8305L281.068 77.7326L287.243 62.4983L299.3 32.7624L305.474 17.5281L307.583 18.3886C308.415 18.7332 308.815 19.6835 308.488 20.5123L302.936 34.242Z" fill="#026551"/>
<path fill-rule="evenodd" clip-rule="evenodd" d="M302.496 15.8695L308.801 18.4138C309.419 18.6536 309.715 19.3618 309.455 19.9793L308.472 22.409C308.232 23.0257 307.521 23.3206 306.902 23.0619L300.598 20.5175C299.979 20.2778 299.684 19.5696 299.943 18.9521L300.926 16.5035C301.167 15.9057 301.877 15.6108 302.496 15.8695Z" fill="#DB5500"/>
<path fill-rule="evenodd" clip-rule="evenodd" d="M305.649 17.1417L308.801 18.4138C309.419 18.6536 309.715 19.3618 309.455 19.9793L308.472 22.409C308.232 23.0257 307.521 23.3206 306.902 23.0619L303.75 21.7897L305.649 17.1417Z" fill="#C94D00"/>
</g>
<g clip-path="url(#clip2_782_2801)">
<path fill-rule="evenodd" clip-rule="evenodd" d="M242.491 38.9719L249.753 30.4547C251.186 28.7736 253.709 28.5751 255.384 30.01L286.139 56.3889C287.796 57.8185 288.008 60.3525 286.574 62.0335L279.313 70.5508C277.884 72.2136 275.356 72.4303 273.681 70.9955L242.926 44.6165C241.257 43.1634 241.063 40.6347 242.491 38.9719Z" fill="#017864"/>
<path fill-rule="evenodd" clip-rule="evenodd" d="M232.162 25.7521L235.121 22.278C235.713 21.5989 236.741 21.5211 237.423 22.0946L271.763 51.55C272.445 52.1234 272.516 53.1725 271.943 53.8569L268.983 57.3309C268.392 58.0101 267.364 58.0878 266.682 57.5144L232.341 28.059C231.665 27.4673 231.571 26.4312 232.162 25.7521Z" fill="#017864"/>
<path fill-rule="evenodd" clip-rule="evenodd" d="M248.675 31.7246L249.771 30.4599C251.199 28.7971 253.728 28.5804 255.402 30.0152L286.157 56.3942C287.814 57.8238 288.026 60.3577 286.592 62.0388L282.955 66.2857L270.475 55.5874L246.116 34.7015L233.635 24.0033L235.121 22.278C235.713 21.5989 236.741 21.5211 237.423 22.0946L248.675 31.7246Z" fill="#026551"/>
<path fill-rule="evenodd" clip-rule="evenodd" d="M231.116 26.2994L235.533 21.1313C235.957 20.6212 236.722 20.5662 237.225 21.0086L239.216 22.7131C239.724 23.1373 239.778 23.9045 239.336 24.4093L234.919 29.5774C234.495 30.0875 233.73 30.1425 233.227 29.7001L231.217 27.9903C230.727 27.5714 230.674 26.8042 231.116 26.2994Z" fill="#DB5500"/>
<path fill-rule="evenodd" clip-rule="evenodd" d="M233.324 23.7153L235.533 21.1313C235.957 20.6212 236.722 20.5662 237.225 21.0086L239.216 22.7131C239.724 23.1373 239.778 23.9045 239.336 24.4093L237.127 26.9934L233.324 23.7153Z" fill="#C94D00"/>
</g>
<path d="M308.519 50.2771L287.421 28.8531L385.419 51.7721L407.981 71.2872L308.519 50.2771Z" fill="url(#paint1_linear_782_2801)"/>
<path d="M211.8 121.422L227.844 36.3417L307.41 49.9597L291.646 135.049L211.8 121.422Z" fill="url(#paint2_linear_782_2801)"/>
<path d="M291.366 135.039L307.131 49.95L407.711 70.9981L392.245 155.538L291.366 135.039Z" fill="url(#paint3_linear_782_2801)"/>
<g clip-path="url(#clip3_782_2801)">
<path d="M302.266 49.0004C302.266 49.0004 280.274 46.7112 272.264 64.0572C272.264 64.0572 247.03 43.2975 241.29 43.7832L251.345 39.8978L267.485 42.9375L302.266 49.0004Z" fill="#C8A720"/>
</g>
<path d="M301.63 48.8811C301.63 48.8811 279.76 43.9958 271.112 61.0326C271.112 61.0326 246.666 39.3507 240.912 39.6232L251.104 36.1135L267.12 39.7501L301.63 48.8811Z" fill="#FFD527"/>
</g>
<defs>
<linearGradient id="paint0_linear_782_2801" x1="260" y1="21" x2="325" y2="72" gradientUnits="userSpaceOnUse">
<stop stop-color="white"/>
<stop offset="1" stop-color="#585858"/>
</linearGradient>
<linearGradient id="paint1_linear_782_2801" x1="378.675" y1="36.1527" x2="335.581" y2="69.1057" gradientUnits="userSpaceOnUse">
<stop stop-color="#02C275"/>
<stop offset="1" stop-color="#009258"/>
</linearGradient>
<linearGradient id="paint2_linear_782_2801" x1="246.656" y1="133.24" x2="292.924" y2="48.0681" gradientUnits="userSpaceOnUse">
<stop stop-color="#0AAC6B"/>
<stop offset="1" stop-color="#02C275"/>
</linearGradient>
<linearGradient id="paint3_linear_782_2801" x1="301.835" y1="139.873" x2="397.033" y2="72.314" gradientUnits="userSpaceOnUse">
<stop stop-color="#1E7441"/>
<stop offset="1" stop-color="#02C275"/>
</linearGradient>
<clipPath id="clip0_782_2801">
<rect width="68.7278" height="66.2007" fill="white" transform="translate(255.082 6.34331) rotate(14.3824)"/>
</clipPath>
<clipPath id="clip1_782_2801">
<rect width="80" height="76" fill="white" transform="translate(229.451 18.7875) rotate(-2.37673)"/>
</clipPath>
<clipPath id="clip2_782_2801">
<rect width="80" height="76" fill="white" transform="translate(210.657 96.482) rotate(-73.8371)"/>
</clipPath>
<clipPath id="clip3_782_2801">
<rect width="59.61" height="32" fill="white" transform="matrix(-0.997132 0.0756835 0.0756835 0.997132 300.015 29.8588)"/>
</clipPath>
</defs>
</svg>
